<svg xmlns="http://www.w3.org/2000/svg" xmlns:xlink="http://www.w3.org/1999/xlink" width="120" zoomAndPan="magnify" viewBox="0 0 90 30.000001" height="40" preserveAspectRatio="xMidYMid meet" version="1.2"><defs/><g id="68264d3ec4"><g style="fill:#000000;fill-opacity:1;"><g transform="translate(6.492163, 16.527718)"><path style="stroke:none" d="M 3.234375 -2.5 L 0.234375 -7.046875 L 0.234375 -7.953125 L 1.875 -7.953125 L 4.09375 -4.4375 L 4.203125 -4.4375 L 6.421875 -7.953125 L 8.0625 -7.953125 L 8.0625 -7.046875 L 5.0625 -2.5 L 5.0625 0 L 3.234375 0 Z M 3.234375 -2.5 "/></g></g><g style="fill:#000000;fill-opacity:1;"><g transform="translate(14.78635, 16.527718)"><path style="stroke:none" d="M 2.671875 0.109375 C 2.097656 0.109375 1.640625 -0.0546875 1.296875 -0.390625 C 0.960938 -0.734375 0.796875 -1.191406 0.796875 -1.765625 L 0.796875 -6.1875 C 0.796875 -6.757812 0.960938 -7.210938 1.296875 -7.546875 C 1.640625 -7.890625 2.097656 -8.0625 2.671875 -8.0625 L 6.765625 -8.0625 C 7.328125 -8.0625 7.78125 -7.890625 8.125 -7.546875 C 8.46875 -7.210938 8.640625 -6.757812 8.640625 -6.1875 L 8.640625 -1.765625 C 8.640625 -1.191406 8.46875 -0.734375 8.125 -0.390625 C 7.78125 -0.0546875 7.328125 0.109375 6.765625 0.109375 Z M 6.078125 -1.484375 C 6.566406 -1.484375 6.8125 -1.726562 6.8125 -2.21875 L 6.8125 -5.734375 C 6.8125 -6.222656 6.566406 -6.46875 6.078125 -6.46875 L 3.34375 -6.46875 C 2.851562 -6.46875 2.609375 -6.222656 2.609375 -5.734375 L 2.609375 -2.21875 C 2.609375 -1.726562 2.851562 -1.484375 3.34375 -1.484375 Z M 6.078125 -1.484375 "/></g></g><g style="fill:#000000;fill-opacity:1;"><g transform="translate(24.216727, 16.527718)"><path style="stroke:none" d="M 2.71875 0.109375 C 2.15625 0.109375 1.703125 -0.0546875 1.359375 -0.390625 C 1.023438 -0.734375 0.859375 -1.191406 0.859375 -1.765625 L 0.859375 -7.953125 L 2.671875 -7.953125 L 2.671875 -2.21875 C 2.671875 -1.726562 2.914062 -1.484375 3.40625 -1.484375 L 6.140625 -1.484375 C 6.628906 -1.484375 6.875 -1.726562 6.875 -2.21875 L 6.875 -7.953125 L 8.6875 -7.953125 L 8.6875 -1.765625 C 8.6875 -1.191406 8.515625 -0.734375 8.171875 -0.390625 C 7.835938 -0.0546875 7.382812 0.109375 6.8125 0.109375 Z M 2.71875 0.109375 "/></g></g><g style="fill:#000000;fill-opacity:1;"><g transform="translate(33.760724, 16.527718)"><path style="stroke:none" d="M 0.90625 -7.953125 L 6.640625 -7.953125 C 7.210938 -7.953125 7.664062 -7.78125 8 -7.4375 C 8.34375 -7.09375 8.515625 -6.640625 8.515625 -6.078125 L 8.515625 -4.71875 C 8.515625 -4.3125 8.4375 -3.992188 8.28125 -3.765625 C 8.125 -3.535156 7.945312 -3.359375 7.75 -3.234375 C 7.519531 -3.097656 7.265625 -3.003906 6.984375 -2.953125 L 8.6875 -0.90625 L 8.6875 0 L 7.046875 0 L 4.828125 -2.84375 L 2.71875 -2.84375 L 2.71875 0 L 0.90625 0 Z M 5.96875 -4.4375 C 6.457031 -4.4375 6.703125 -4.679688 6.703125 -5.171875 L 6.703125 -5.625 C 6.703125 -6.113281 6.457031 -6.359375 5.96875 -6.359375 L 2.71875 -6.359375 L 2.71875 -4.4375 Z M 5.96875 -4.4375 "/></g></g><g style="fill:#000000;fill-opacity:1;"><g transform="translate(43.077485, 16.527718)"><path style="stroke:none" d=""/></g></g><g style="fill:#000000;fill-opacity:1;"><g transform="translate(46.258818, 16.527718)"><path style="stroke:none" d="M 0.90625 -7.953125 L 2.71875 -7.953125 L 2.71875 -1.640625 L 7.609375 -1.640625 L 7.609375 0 L 0.90625 0 Z M 0.90625 -7.953125 "/></g></g><g style="fill:#000000;fill-opacity:1;"><g transform="translate(54.155338, 16.527718)"><path style="stroke:none" d="M 2.671875 0.109375 C 2.097656 0.109375 1.640625 -0.0546875 1.296875 -0.390625 C 0.960938 -0.734375 0.796875 -1.191406 0.796875 -1.765625 L 0.796875 -6.1875 C 0.796875 -6.757812 0.960938 -7.210938 1.296875 -7.546875 C 1.640625 -7.890625 2.097656 -8.0625 2.671875 -8.0625 L 6.765625 -8.0625 C 7.328125 -8.0625 7.78125 -7.890625 8.125 -7.546875 C 8.46875 -7.210938 8.640625 -6.757812 8.640625 -6.1875 L 8.640625 -1.765625 C 8.640625 -1.191406 8.46875 -0.734375 8.125 -0.390625 C 7.78125 -0.0546875 7.328125 0.109375 6.765625 0.109375 Z M 6.078125 -1.484375 C 6.566406 -1.484375 6.8125 -1.726562 6.8125 -2.21875 L 6.8125 -5.734375 C 6.8125 -6.222656 6.566406 -6.46875 6.078125 -6.46875 L 3.34375 -6.46875 C 2.851562 -6.46875 2.609375 -6.222656 2.609375 -5.734375 L 2.609375 -2.21875 C 2.609375 -1.726562 2.851562 -1.484375 3.34375 -1.484375 Z M 6.078125 -1.484375 "/></g></g><g style="fill:#000000;fill-opacity:1;"><g transform="translate(63.585715, 16.527718)"><path style="stroke:none" d="M 2.671875 0 C 2.097656 0 1.640625 -0.164062 1.296875 -0.5 C 0.960938 -0.84375 0.796875 -1.300781 0.796875 -1.875 L 0.796875 -6.078125 C 0.796875 -6.640625 0.960938 -7.09375 1.296875 -7.4375 C 1.640625 -7.78125 2.097656 -7.953125 2.671875 -7.953125 L 7.953125 -7.953125 L 7.953125 -6.921875 L 7.390625 -6.359375 L 3.34375 -6.359375 C 2.851562 -6.359375 2.609375 -6.113281 2.609375 -5.625 L 2.609375 -2.328125 C 2.609375 -1.835938 2.851562 -1.59375 3.34375 -1.59375 L 6.59375 -1.59375 L 6.59375 -4.4375 L 8.40625 -4.4375 L 8.40625 0 Z M 2.671875 0 "/></g></g><g style="fill:#000000;fill-opacity:1;"><g transform="translate(72.788857, 16.527718)"><path style="stroke:none" d="M 2.671875 0.109375 C 2.097656 0.109375 1.640625 -0.0546875 1.296875 -0.390625 C 0.960938 -0.734375 0.796875 -1.191406 0.796875 -1.765625 L 0.796875 -6.1875 C 0.796875 -6.757812 0.960938 -7.210938 1.296875 -7.546875 C 1.640625 -7.890625 2.097656 -8.0625 2.671875 -8.0625 L 6.765625 -8.0625 C 7.328125 -8.0625 7.78125 -7.890625 8.125 -7.546875 C 8.46875 -7.210938 8.640625 -6.757812 8.640625 -6.1875 L 8.640625 -1.765625 C 8.640625 -1.191406 8.46875 -0.734375 8.125 -0.390625 C 7.78125 -0.0546875 7.328125 0.109375 6.765625 0.109375 Z M 6.078125 -1.484375 C 6.566406 -1.484375 6.8125 -1.726562 6.8125 -2.21875 L 6.8125 -5.734375 C 6.8125 -6.222656 6.566406 -6.46875 6.078125 -6.46875 L 3.34375 -6.46875 C 2.851562 -6.46875 2.609375 -6.222656 2.609375 -5.734375 L 2.609375 -2.21875 C 2.609375 -1.726562 2.851562 -1.484375 3.34375 -1.484375 Z M 6.078125 -1.484375 "/></g></g></g></svg>